<?xml version="1.0" encoding="UTF-8" standalone="no"?>
<!DOCTYPE svg PUBLIC "-//W3C//DTD SVG 1.1//EN" "http://www.w3.org/Graphics/SVG/1.1/DTD/svg11.dtd">
<svg width="601px" height="142px" version="1.1" xmlns="http://www.w3.org/2000/svg" xmlns:xlink="http://www.w3.org/1999/xlink" xml:space="preserve" xmlns:serif="http://www.serif.com/" style="fill-rule:evenodd;clip-rule:evenodd;stroke-linecap:round;stroke-linejoin:round;stroke-miterlimit:1.5;">
    <g transform="matrix(0.666667,0,0,0.666667,0,0)">
        <g id="Loopback-Diagram" serif:id="Loopback Diagram" transform="matrix(0.98733,0,0,0.762003,-16.1995,-150.579)">
            <rect x="16.407" y="197.609" width="913.042" height="279.105" style="fill:none;"/>
            <g transform="matrix(0.806315,0,0,1.34549,-51.7921,-152.041)">
                <path d="M501.055,291.622L501.055,436.071C501.055,450.94 485.508,463.012 466.359,463.012L128.993,463.012C109.844,463.012 94.297,450.94 94.297,436.071L94.297,291.622C94.297,276.753 109.844,264.681 128.993,264.681L466.359,264.681C485.508,264.681 501.055,276.753 501.055,291.622Z" style="fill:rgb(255,139,36);fill-opacity:0.36;stroke:rgb(255,139,36);stroke-width:8.72px;"/>
            </g>
            <g transform="matrix(0.806315,0,0,1.34549,517.264,-152.041)">
                <path d="M501.055,291.622L501.055,436.071C501.055,450.94 485.508,463.012 466.359,463.012L128.993,463.012C109.844,463.012 94.297,450.94 94.297,436.071L94.297,291.622C94.297,276.753 109.844,264.681 128.993,264.681L466.359,264.681C485.508,264.681 501.055,276.753 501.055,291.622Z" style="fill:rgb(54,154,255);fill-opacity:0.31;stroke:rgb(54,154,255);stroke-width:8.72px;"/>
            </g>
            <g transform="matrix(1.01283,0,0,1.31233,-42.0173,-102.567)">
                <path d="M400.087,296.847L400.087,313.723L374.124,287.76L400.087,261.796L400.087,278.672L626.544,278.672L626.544,296.847L400.087,296.847Z" style="fill:rgb(54,154,255);stroke:rgb(54,154,255);stroke-width:8px;"/>
            </g>
            <g transform="matrix(1.01283,0,0,1.31233,-26.7081,19.4866)">
                <path d="M374.124,296.847L374.124,278.672L600.581,278.672L600.581,261.796L626.544,287.76L600.581,313.723L600.581,296.847L374.124,296.847Z" style="fill:rgb(255,139,36);stroke:rgb(255,139,36);stroke-width:8px;"/>
            </g>
            <g transform="matrix(1.01283,0,0,1.31233,31.1636,-106.767)">
                <path d="M98.372,398.104L145.702,274.862L163.272,274.862L213.711,398.104L195.133,398.104L180.757,360.778L129.225,360.778L115.69,398.104L98.372,398.104ZM133.932,347.495L175.713,347.495L162.851,313.364C158.928,302.996 156.014,294.478 154.108,287.808C152.539,295.711 150.325,303.557 147.467,311.347L133.932,347.495Z" style="fill:rgb(255,139,36);fill-rule:nonzero;stroke:rgb(255,139,36);stroke-width:1px;stroke-linecap:butt;stroke-miterlimit:2;"/>
            </g>
            <g transform="matrix(1.01283,0,0,1.31233,604.554,-106.767)">
                <path d="M111.234,398.104L111.234,274.862L157.471,274.862C166.886,274.862 174.424,276.123 180.085,278.645C185.801,281.111 190.257,284.95 193.451,290.162C196.702,295.318 198.327,300.726 198.327,306.387C198.327,311.655 196.898,316.615 194.04,321.267C191.182,325.918 186.866,329.673 181.094,332.532C188.548,334.717 194.264,338.444 198.243,343.712C202.278,348.981 204.296,355.202 204.296,362.375C204.296,368.148 203.063,373.528 200.597,378.516C198.187,383.448 195.189,387.259 191.602,389.949C188.015,392.639 183.504,394.685 178.067,396.086C172.687,397.431 166.074,398.104 158.228,398.104L111.234,398.104ZM127.543,326.647L154.192,326.647C161.422,326.647 166.606,326.171 169.745,325.218C173.892,323.985 177.002,321.939 179.076,319.081C181.206,316.223 182.271,312.636 182.271,308.32C182.271,304.229 181.29,300.642 179.328,297.56C177.367,294.421 174.564,292.292 170.922,291.171C167.279,289.994 161.03,289.406 152.175,289.406L127.543,289.406L127.543,326.647ZM127.543,383.56L158.228,383.56C163.496,383.56 167.195,383.364 169.324,382.972C173.079,382.299 176.218,381.178 178.74,379.609C181.262,378.04 183.335,375.77 184.961,372.799C186.586,369.773 187.399,366.298 187.399,362.375C187.399,357.78 186.222,353.8 183.868,350.438C181.514,347.019 178.235,344.637 174.032,343.292C169.885,341.891 163.888,341.19 156.042,341.19L127.543,341.19L127.543,383.56Z" style="fill:rgb(54,154,255);fill-rule:nonzero;stroke:rgb(54,154,255);stroke-width:1px;stroke-linecap:butt;stroke-miterlimit:2;"/>
            </g>
        </g>
    </g>
</svg>
