<?xml version="1.0" encoding="UTF-8" standalone="no"?>
<!DOCTYPE svg PUBLIC "-//W3C//DTD SVG 1.1//EN" "http://www.w3.org/Graphics/SVG/1.1/DTD/svg11.dtd">
<svg width="978px" height="145px" version="1.1" xmlns="http://www.w3.org/2000/svg" xmlns:xlink="http://www.w3.org/1999/xlink" xml:space="preserve" xmlns:serif="http://www.serif.com/" style="fill-rule:evenodd;clip-rule:evenodd;stroke-linecap:round;stroke-linejoin:round;stroke-miterlimit:1.5;">
    <g transform="matrix(0.666667,0,0,0.666667,0,0)">
        <g id="Loopback-Diagram" serif:id="Loopback Diagram" transform="matrix(1.60645,0,0,0.777565,-26.3576,-153.654)">
            <rect x="16.407" y="197.609" width="913.042" height="279.105" style="fill:none;"/>
            <g transform="matrix(0.495564,0,0,1.31856,150.886,-142.471)">
                <path d="M501.055,291.622L501.055,436.071C501.055,450.94 485.508,463.012 466.359,463.012L128.993,463.012C109.844,463.012 94.297,450.94 94.297,436.071L94.297,291.622C94.297,276.753 109.844,264.681 128.993,264.681L466.359,264.681C485.508,264.681 501.055,276.753 501.055,291.622Z" style="fill:rgb(255,139,36);fill-opacity:0.36;stroke:rgb(255,139,36);stroke-width:8.72px;"/>
            </g>
            <g transform="matrix(0.495564,0,0,1.31856,500.63,-142.471)">
                <path d="M501.055,291.622L501.055,436.071C501.055,450.94 485.508,463.012 466.359,463.012L128.993,463.012C109.844,463.012 94.297,450.94 94.297,436.071L94.297,291.622C94.297,276.753 109.844,264.681 128.993,264.681L466.359,264.681C485.508,264.681 501.055,276.753 501.055,291.622Z" style="fill:rgb(54,154,255);fill-opacity:0.31;stroke:rgb(54,154,255);stroke-width:8.72px;"/>
            </g>
            <g transform="matrix(0.62249,0,0,1.28607,156.894,-94.2635)">
                <path d="M400.087,296.847L400.087,313.723L374.124,287.76L400.087,261.796L400.087,278.672L626.544,278.672L626.544,296.847L400.087,296.847Z" style="fill:rgb(54,154,255);stroke:rgb(54,154,255);stroke-width:8px;"/>
            </g>
            <g transform="matrix(0.62249,0,0,1.28607,166.303,24.8956)">
                <path d="M374.124,296.847L374.124,278.672L600.581,278.672L600.581,261.796L626.544,287.76L600.581,313.723L600.581,296.847L374.124,296.847Z" style="fill:rgb(255,139,36);stroke:rgb(255,139,36);stroke-width:8px;"/>
            </g>
            <g transform="matrix(0.62249,0,0,1.28607,201.871,-98.1031)">
                <path d="M98.372,398.104L145.702,274.862L163.272,274.862L213.711,398.104L195.133,398.104L180.757,360.778L129.225,360.778L115.69,398.104L98.372,398.104ZM133.932,347.495L175.713,347.495L162.851,313.364C158.928,302.996 156.014,294.478 154.108,287.808C152.539,295.711 150.325,303.557 147.467,311.347L133.932,347.495Z" style="fill:rgb(255,139,36);fill-rule:nonzero;stroke:rgb(255,139,36);stroke-width:1px;stroke-linecap:butt;stroke-miterlimit:2;"/>
            </g>
            <g transform="matrix(0.62249,0,0,1.28607,554.278,-98.1031)">
                <path d="M111.234,398.104L111.234,274.862L157.471,274.862C166.886,274.862 174.424,276.123 180.085,278.645C185.801,281.111 190.257,284.95 193.451,290.162C196.702,295.318 198.327,300.726 198.327,306.387C198.327,311.655 196.898,316.615 194.04,321.267C191.182,325.918 186.866,329.673 181.094,332.532C188.548,334.717 194.264,338.444 198.243,343.712C202.278,348.981 204.296,355.202 204.296,362.375C204.296,368.148 203.063,373.528 200.597,378.516C198.187,383.448 195.189,387.259 191.602,389.949C188.015,392.639 183.504,394.685 178.067,396.086C172.687,397.431 166.074,398.104 158.228,398.104L111.234,398.104ZM127.543,326.647L154.192,326.647C161.422,326.647 166.606,326.171 169.745,325.218C173.892,323.985 177.002,321.939 179.076,319.081C181.206,316.223 182.271,312.636 182.271,308.32C182.271,304.229 181.29,300.642 179.328,297.56C177.367,294.421 174.564,292.292 170.922,291.171C167.279,289.994 161.03,289.406 152.175,289.406L127.543,289.406L127.543,326.647ZM127.543,383.56L158.228,383.56C163.496,383.56 167.195,383.364 169.324,382.972C173.079,382.299 176.218,381.178 178.74,379.609C181.262,378.04 183.335,375.77 184.961,372.799C186.586,369.773 187.399,366.298 187.399,362.375C187.399,357.78 186.222,353.8 183.868,350.438C181.514,347.019 178.235,344.637 174.032,343.292C169.885,341.891 163.888,341.19 156.042,341.19L127.543,341.19L127.543,383.56Z" style="fill:rgb(54,154,255);fill-rule:nonzero;stroke:rgb(54,154,255);stroke-width:1px;stroke-linecap:butt;stroke-miterlimit:2;"/>
            </g>
            <g transform="matrix(1.06715,0,0,0.979986,-24.6821,-14.8659)">
                <g transform="matrix(0.639579,0,0,1.38708,21.7787,232.09)">
                    <rect x="39.504" y="33.909" width="142.478" height="114.271" style="fill:white;fill-opacity:0.31;stroke:black;stroke-width:7.43px;"/>
                </g>
                <g transform="matrix(0.630937,0,0,1.31233,13.8719,197.609)">
                    <path d="M53.246,80.92L195,80.92" style="fill:none;stroke:black;stroke-width:7.68px;"/>
                </g>
                <g transform="matrix(0.583319,0,0,2.87072,16.4074,47.8358)">
                    <rect x="62.648" y="96.108" width="33.992" height="34.715" style="fill:white;fill-opacity:0.31;stroke:black;stroke-width:4.7px;"/>
                </g>
                <g transform="matrix(0.624617,0,0,1.12486,13.3535,214.814)">
                    <rect x="104.596" y="96.831" width="81.726" height="15.188" style="fill:white;fill-opacity:0.31;stroke:black;stroke-width:8.25px;"/>
                </g>
                <g transform="matrix(0.624617,0,0,1.12486,13.3535,244.237)">
                    <rect x="104.596" y="96.831" width="81.726" height="15.188" style="fill:white;fill-opacity:0.31;stroke:black;stroke-width:8.25px;"/>
                </g>
                <g transform="matrix(0.583319,0,0,1.31233,17.574,197.609)">
                    <rect x="105.319" y="143.118" width="13.018" height="27.483" style="fill:white;fill-opacity:0.31;stroke:black;stroke-width:8px;"/>
                </g>
                <g transform="matrix(0.583319,0,0,1.31233,32.157,197.609)">
                    <rect x="105.319" y="143.118" width="13.018" height="27.483" style="fill:white;fill-opacity:0.31;stroke:black;stroke-width:8px;"/>
                </g>
                <g transform="matrix(0.583319,0,0,1.31233,46.74,197.609)">
                    <rect x="105.319" y="143.118" width="13.018" height="27.483" style="fill:white;fill-opacity:0.31;stroke:black;stroke-width:8px;"/>
                </g>
                <g transform="matrix(0.583319,0,0,1.31233,61.323,197.609)">
                    <rect x="105.319" y="143.118" width="13.018" height="27.483" style="fill:white;fill-opacity:0.31;stroke:black;stroke-width:8px;"/>
                </g>
            </g>
            <g transform="matrix(1.06715,0,0,0.979986,773.82,-14.8659)">
                <g transform="matrix(0.639579,0,0,1.38708,21.7787,232.09)">
                    <rect x="39.504" y="33.909" width="142.478" height="114.271" style="fill:white;fill-opacity:0.31;stroke:black;stroke-width:7.43px;"/>
                </g>
                <g transform="matrix(0.630937,0,0,1.31233,13.8719,197.609)">
                    <path d="M53.246,80.92L195,80.92" style="fill:none;stroke:black;stroke-width:7.68px;"/>
                </g>
                <g transform="matrix(0.583319,0,0,2.87072,16.4074,47.8358)">
                    <rect x="62.648" y="96.108" width="33.992" height="34.715" style="fill:white;fill-opacity:0.31;stroke:black;stroke-width:4.7px;"/>
                </g>
                <g transform="matrix(0.624617,0,0,1.12486,13.3535,214.814)">
                    <rect x="104.596" y="96.831" width="81.726" height="15.188" style="fill:white;fill-opacity:0.31;stroke:black;stroke-width:8.25px;"/>
                </g>
                <g transform="matrix(0.624617,0,0,1.12486,13.3535,244.237)">
                    <rect x="104.596" y="96.831" width="81.726" height="15.188" style="fill:white;fill-opacity:0.31;stroke:black;stroke-width:8.25px;"/>
                </g>
                <g transform="matrix(0.583319,0,0,1.31233,17.574,197.609)">
                    <rect x="105.319" y="143.118" width="13.018" height="27.483" style="fill:white;fill-opacity:0.31;stroke:black;stroke-width:8px;"/>
                </g>
                <g transform="matrix(0.583319,0,0,1.31233,32.157,197.609)">
                    <rect x="105.319" y="143.118" width="13.018" height="27.483" style="fill:white;fill-opacity:0.31;stroke:black;stroke-width:8px;"/>
                </g>
                <g transform="matrix(0.583319,0,0,1.31233,46.74,197.609)">
                    <rect x="105.319" y="143.118" width="13.018" height="27.483" style="fill:white;fill-opacity:0.31;stroke:black;stroke-width:8px;"/>
                </g>
                <g transform="matrix(0.583319,0,0,1.31233,61.323,197.609)">
                    <rect x="105.319" y="143.118" width="13.018" height="27.483" style="fill:white;fill-opacity:0.31;stroke:black;stroke-width:8px;"/>
                </g>
            </g>
            <g transform="matrix(0.267562,0,0,1.28607,25.8143,-27.3937)">
                <path d="M434.528,296.847L434.528,313.723L374.124,287.76L434.528,261.796L434.528,278.672L566.14,278.672L566.14,261.796L626.544,287.76L566.14,313.723L566.14,296.847L434.528,296.847Z" style="fill:rgb(255,139,36);stroke:rgb(255,139,36);stroke-width:10.39px;"/>
            </g>
            <g transform="matrix(0.267562,0,0,1.28607,652.953,-27.3937)">
                <path d="M434.528,296.847L434.528,313.723L374.124,287.76L434.528,261.796L434.528,278.672L566.14,278.672L566.14,261.796L626.544,287.76L566.14,313.723L566.14,296.847L434.528,296.847Z" style="fill:rgb(54,154,255);stroke:rgb(54,154,255);stroke-width:10.39px;"/>
            </g>
            <g transform="matrix(0.62249,0,0,1.28607,25.5638,184.246)">
                <g transform="matrix(48,0,0,48,560.235,87.4289)">
                    <rect x="0.068" y="-0.716" width="0.145" height="0.716" style="fill:rgb(255,139,36);fill-rule:nonzero;"/>
                </g>
            </g>
            <g transform="matrix(0.62249,0,0,1.28607,213.061,303.405)">
                <g transform="matrix(48,0,0,48,560.235,87.4289)">
                    <rect x="0.068" y="-0.716" width="0.145" height="0.716" style="fill:rgb(54,154,255);fill-rule:nonzero;"/>
                </g>
            </g>
            <g transform="matrix(0.62249,0,0,1.28607,205.024,184.246)">
                <g transform="matrix(48,0,0,48,560.235,87.4289)">
                    <path d="M0.043,-0.354C0.043,-0.426 0.054,-0.488 0.076,-0.537C0.092,-0.574 0.115,-0.606 0.143,-0.635C0.171,-0.664 0.202,-0.686 0.235,-0.7C0.28,-0.719 0.331,-0.728 0.39,-0.728C0.495,-0.728 0.579,-0.695 0.643,-0.63C0.706,-0.564 0.738,-0.473 0.738,-0.357C0.738,-0.241 0.706,-0.151 0.644,-0.085C0.581,-0.02 0.497,0.012 0.392,0.012C0.285,0.012 0.201,-0.02 0.138,-0.085C0.075,-0.15 0.043,-0.24 0.043,-0.354ZM0.192,-0.358C0.192,-0.277 0.211,-0.216 0.249,-0.174C0.286,-0.132 0.333,-0.111 0.391,-0.111C0.449,-0.111 0.496,-0.132 0.533,-0.173C0.57,-0.215 0.588,-0.277 0.588,-0.36C0.588,-0.442 0.57,-0.504 0.534,-0.544C0.498,-0.584 0.451,-0.604 0.391,-0.604C0.332,-0.604 0.284,-0.584 0.247,-0.543C0.211,-0.502 0.192,-0.441 0.192,-0.358Z" style="fill:rgb(54,154,255);fill-rule:nonzero;"/>
                </g>
            </g>
            <g transform="matrix(0.62249,0,0,1.28607,17.8712,303.405)">
                <g transform="matrix(48,0,0,48,560.235,87.4289)">
                    <path d="M0.043,-0.354C0.043,-0.426 0.054,-0.488 0.076,-0.537C0.092,-0.574 0.115,-0.606 0.143,-0.635C0.171,-0.664 0.202,-0.686 0.235,-0.7C0.28,-0.719 0.331,-0.728 0.39,-0.728C0.495,-0.728 0.579,-0.695 0.643,-0.63C0.706,-0.564 0.738,-0.473 0.738,-0.357C0.738,-0.241 0.706,-0.151 0.644,-0.085C0.581,-0.02 0.497,0.012 0.392,0.012C0.285,0.012 0.201,-0.02 0.138,-0.085C0.075,-0.15 0.043,-0.24 0.043,-0.354ZM0.192,-0.358C0.192,-0.277 0.211,-0.216 0.249,-0.174C0.286,-0.132 0.333,-0.111 0.391,-0.111C0.449,-0.111 0.496,-0.132 0.533,-0.173C0.57,-0.215 0.588,-0.277 0.588,-0.36C0.588,-0.442 0.57,-0.504 0.534,-0.544C0.498,-0.584 0.451,-0.604 0.391,-0.604C0.332,-0.604 0.284,-0.584 0.247,-0.543C0.211,-0.502 0.192,-0.441 0.192,-0.358Z" style="fill:rgb(255,139,36);fill-rule:nonzero;"/>
                </g>
            </g>
        </g>
    </g>
</svg>
